<svg width="80" height="80" viewBox="0 0 80 80" fill="none" xmlns="http://www.w3.org/2000/svg">
<g clip-path="url(#clip0_322_3968)">
<rect width="80" height="80" rx="40" fill="#AFE3F0"/>
<path d="M48.2944 52.2227H51.15V80.0004H48.2944V52.2227Z" fill="#DD551F"/>
<path d="M28.8501 52.2227H31.7057V80.0004H28.8501V52.2227Z" fill="#66757F"/>
<path d="M48.2192 21.8145C44.1526 20.4979 34.5831 20.8562 32.1887 23.9673C25.9692 24.0868 18.672 29.709 17.7137 37.1256C16.7665 44.4673 18.8776 47.8756 19.6276 53.3951C20.4776 59.6479 23.9942 61.6479 26.8053 62.4868C30.8498 67.8284 35.147 67.6006 42.3664 67.6006C56.4609 67.6006 63.1748 58.1701 63.7692 42.1506C64.1276 32.459 58.4442 25.1229 48.2192 21.8145Z" fill="#FFAC33"/>
<path d="M34.5918 63.5703H46.114V80.0009H34.5918V63.5703Z" fill="#FFDC5D"/>
<path d="M56.2805 42.8331C54.9166 40.9442 53.1694 39.4247 49.3416 38.8858C50.7777 39.5442 52.1527 41.8164 52.3332 43.072C52.5138 44.3275 52.6916 45.3442 51.5555 44.0886C47.0027 39.0581 42.0444 41.0386 37.1332 37.9636C33.7027 35.8164 32.6555 33.4414 32.6555 33.4414C32.6555 33.4414 32.236 36.6108 27.0332 39.8414C25.5249 40.7775 23.7249 42.8636 22.7277 45.9414C22.011 48.1553 22.2332 50.1275 22.2332 53.4997C22.2332 63.3442 30.3471 71.622 40.3555 71.622C50.3638 71.622 58.4777 63.272 58.4777 53.4997C58.4749 47.3775 57.8332 44.9859 56.2805 42.8331Z" fill="#FFDC5D"/>
<path d="M48.4085 63.5693H32.2974C32.2974 63.5693 34.3113 67.5971 40.3529 67.5971C46.3946 67.5971 48.4085 63.5693 48.4085 63.5693ZM42.3668 59.5443H38.339C38.0723 59.5443 37.8166 59.4384 37.628 59.2498C37.4394 59.0612 37.3335 58.8054 37.3335 58.5388C37.3335 58.2721 37.4394 58.0163 37.628 57.8277C37.8166 57.6391 38.0723 57.5332 38.339 57.5332H42.3668C42.6335 57.5332 42.8893 57.6391 43.0778 57.8277C43.2664 58.0163 43.3724 58.2721 43.3724 58.5388C43.3724 58.8054 43.2664 59.0612 43.0778 59.2498C42.8893 59.4384 42.6335 59.5443 42.3668 59.5443Z" fill="#C1694F"/>
<path d="M31.9193 54.3453C31.6115 54.3464 31.3065 54.2866 31.0219 54.1693C30.7373 54.052 30.4787 53.8796 30.2611 53.6619C30.0434 53.4442 29.8709 53.1857 29.7537 52.9011C29.6364 52.6165 29.5766 52.3115 29.5777 52.0036V49.662C29.5777 49.0409 29.8244 48.4453 30.2635 48.0062C30.7027 47.567 31.2983 47.3203 31.9193 47.3203C32.5404 47.3203 33.136 47.567 33.5751 48.0062C34.0143 48.4453 34.261 49.0409 34.261 49.662V52.0036C34.2621 52.3115 34.2023 52.6165 34.085 52.9011C33.9677 53.1857 33.7952 53.4442 33.5776 53.6619C33.3599 53.8796 33.1013 54.052 32.8167 54.1693C32.5321 54.2866 32.2271 54.3464 31.9193 54.3453ZM48.586 54.3453C48.2782 54.3464 47.9732 54.2866 47.6886 54.1693C47.404 54.052 47.1454 53.8796 46.9277 53.6619C46.7101 53.4442 46.5376 53.1857 46.4203 52.9011C46.303 52.6165 46.2432 52.3115 46.2443 52.0036V49.662C46.2443 49.0409 46.491 48.4453 46.9302 48.0062C47.3693 47.567 47.9649 47.3203 48.586 47.3203C49.207 47.3203 49.8026 47.567 50.2418 48.0062C50.6809 48.4453 50.9277 49.0409 50.9277 49.662V52.0036C50.9288 52.3115 50.8689 52.6165 50.7516 52.9011C50.6344 53.1857 50.4619 53.4442 50.2442 53.6619C50.0266 53.8796 49.768 54.052 49.4834 54.1693C49.1988 54.2866 48.8938 54.3464 48.586 54.3453Z" fill="#662113"/>
<path d="M54.1418 71.666H46.114C46.114 71.666 44.1556 79.9993 40.3529 79.9993C36.5501 79.9993 34.5918 71.666 34.5918 71.666H29.1418C28.1195 71.6697 27.1427 71.7512 26.2112 71.9105C20.8195 72.816 17.0418 76.1743 15.7695 79.9993H64.7473C63.3084 75.5493 58.7501 71.666 54.1418 71.666Z" fill="#5C913B"/>
</g>
<defs>
<clipPath id="clip0_322_3968">
<rect width="80" height="80" rx="40" fill="white"/>
</clipPath>
</defs>
</svg>
