<svg width="360" height="193" viewBox="0 0 360 193" fill="none" xmlns="http://www.w3.org/2000/svg">
<rect width="360" height="193" fill="#AFE3F0"/>
<path d="M138.548 109.016C141.749 121.417 127.881 124.851 120.547 125.017V131.518C115.047 129.351 103.846 122.617 103.046 113.017C102.246 103.416 112.047 98.6824 117.047 97.5156C122.881 96.1822 135.348 96.6156 138.548 109.016Z" fill="#01A2C1" stroke="#01A2C1"/>
<mask id="path-2-outside-1_322_3883" maskUnits="userSpaceOnUse" x="123" y="107" width="9" height="15" fill="black">
<rect fill="white" x="123" y="107" width="9" height="15"/>
<path d="M125.7 121L124.5 108.88H130.8L129.6 121H125.7Z"/>
</mask>
<path d="M125.7 121L124.5 108.88H130.8L129.6 121H125.7Z" fill="white"/>
<path d="M125.7 121L124.705 121.099L124.794 122H125.7V121ZM124.5 108.88V107.88H123.396L123.505 108.979L124.5 108.88ZM130.8 108.88L131.795 108.979L131.904 107.88H130.8V108.88ZM129.6 121V122H130.506L130.595 121.099L129.6 121ZM126.695 120.901L125.495 108.781L123.505 108.979L124.705 121.099L126.695 120.901ZM124.5 109.88H130.8V107.88H124.5V109.88ZM129.805 108.781L128.605 120.901L130.595 121.099L131.795 108.979L129.805 108.781ZM129.6 120H125.7V122H129.6V120Z" fill="#01A2C1" mask="url(#path-2-outside-1_322_3883)"/>
<circle cx="106" cy="91" r="2.5" fill="#01A2C1" stroke="#01A2C1"/>
<circle cx="132" cy="91" r="2.5" fill="#01A2C1" stroke="#01A2C1"/>
<mask id="path-6-outside-2_322_3883" maskUnits="userSpaceOnUse" x="147" y="89" width="109" height="33" fill="black">
<rect fill="white" x="147" y="89" width="109" height="33"/>
<path d="M151.08 120L148.2 90.912H163.32L160.44 120H151.08ZM182.171 101.82L182.771 107.52L177.941 106.56L176.591 120H170.741L169.391 106.56L164.531 107.52L165.131 101.82H182.171ZM183.383 111.03C183.383 107.89 184.293 105.5 186.113 103.86C187.953 102.22 190.573 101.4 193.973 101.4C197.393 101.4 200.013 102.22 201.833 103.86C203.673 105.5 204.593 107.89 204.593 111.03C204.593 114.17 203.623 116.5 201.683 118.02C199.763 119.54 197.193 120.3 193.973 120.3C190.773 120.3 188.203 119.54 186.263 118.02C184.343 116.5 183.383 114.17 183.383 111.03ZM196.613 110.91C196.613 106.87 195.733 104.85 193.973 104.85C192.233 104.85 191.363 106.87 191.363 110.91C191.363 114.95 192.233 116.97 193.973 116.97C195.733 116.97 196.613 114.95 196.613 110.91ZM228.475 120L226.555 115.152H214.315L212.491 120H205.675L213.787 90.912H230.875L238.987 120H228.475ZM224.107 108.912L220.315 99.312L216.667 108.912H224.107ZM242.603 120L239.723 90.912H254.843L251.963 120H242.603Z"/>
</mask>
<path d="M151.08 120L148.2 90.912H163.32L160.44 120H151.08ZM182.171 101.82L182.771 107.52L177.941 106.56L176.591 120H170.741L169.391 106.56L164.531 107.52L165.131 101.82H182.171ZM183.383 111.03C183.383 107.89 184.293 105.5 186.113 103.86C187.953 102.22 190.573 101.4 193.973 101.4C197.393 101.4 200.013 102.22 201.833 103.86C203.673 105.5 204.593 107.89 204.593 111.03C204.593 114.17 203.623 116.5 201.683 118.02C199.763 119.54 197.193 120.3 193.973 120.3C190.773 120.3 188.203 119.54 186.263 118.02C184.343 116.5 183.383 114.17 183.383 111.03ZM196.613 110.91C196.613 106.87 195.733 104.85 193.973 104.85C192.233 104.85 191.363 106.87 191.363 110.91C191.363 114.95 192.233 116.97 193.973 116.97C195.733 116.97 196.613 114.95 196.613 110.91ZM228.475 120L226.555 115.152H214.315L212.491 120H205.675L213.787 90.912H230.875L238.987 120H228.475ZM224.107 108.912L220.315 99.312L216.667 108.912H224.107ZM242.603 120L239.723 90.912H254.843L251.963 120H242.603Z" fill="#01A2C1"/>
<path d="M151.08 120L150.085 120.099L150.174 121H151.08V120ZM148.2 90.912V89.912H147.096L147.205 91.0105L148.2 90.912ZM163.32 90.912L164.315 91.0105L164.424 89.912H163.32V90.912ZM160.44 120V121H161.346L161.435 120.099L160.44 120ZM152.075 119.901L149.195 90.8135L147.205 91.0105L150.085 120.099L152.075 119.901ZM148.2 91.912H163.32V89.912H148.2V91.912ZM162.325 90.8135L159.445 119.901L161.435 120.099L164.315 91.0105L162.325 90.8135ZM160.44 119H151.08V121H160.44V119ZM182.171 101.82L183.166 101.715L183.072 100.82H182.171V101.82ZM182.771 107.52L182.576 108.501L183.908 108.765L183.766 107.415L182.771 107.52ZM177.941 106.56L178.136 105.579L177.056 105.365L176.946 106.46L177.941 106.56ZM176.591 120V121H177.496L177.586 120.1L176.591 120ZM170.741 120L169.746 120.1L169.837 121H170.741V120ZM169.391 106.56L170.386 106.46L170.276 105.366L169.197 105.579L169.391 106.56ZM164.531 107.52L163.537 107.415L163.395 108.764L164.725 108.501L164.531 107.52ZM165.131 101.82V100.82H164.231L164.137 101.715L165.131 101.82ZM181.177 101.925L181.777 107.625L183.766 107.415L183.166 101.715L181.177 101.925ZM182.966 106.539L178.136 105.579L177.746 107.541L182.576 108.501L182.966 106.539ZM176.946 106.46L175.596 119.9L177.586 120.1L178.936 106.66L176.946 106.46ZM176.591 119H170.741V121H176.591V119ZM171.736 119.9L170.386 106.46L168.396 106.66L169.746 120.1L171.736 119.9ZM169.197 105.579L164.337 106.539L164.725 108.501L169.585 107.541L169.197 105.579ZM165.526 107.625L166.126 101.925L164.137 101.715L163.537 107.415L165.526 107.625ZM165.131 102.82H182.171V100.82H165.131V102.82ZM186.113 103.86L185.448 103.113L185.444 103.117L186.113 103.86ZM201.833 103.86L201.164 104.603L201.168 104.607L201.833 103.86ZM201.683 118.02L201.066 117.233L201.062 117.236L201.683 118.02ZM186.263 118.02L185.642 118.804L185.646 118.807L186.263 118.02ZM184.383 111.03C184.383 108.088 185.229 106.003 186.783 104.603L185.444 103.117C183.358 104.997 182.383 107.692 182.383 111.03H184.383ZM186.779 104.607C188.376 103.183 190.725 102.4 193.973 102.4V100.4C190.421 100.4 187.53 101.257 185.448 103.113L186.779 104.607ZM193.973 102.4C197.244 102.4 199.589 103.184 201.164 104.603L202.503 103.117C200.437 101.256 197.543 100.4 193.973 100.4V102.4ZM201.168 104.607C202.74 106.008 203.593 108.092 203.593 111.03H205.593C205.593 107.688 204.607 104.992 202.499 103.113L201.168 104.607ZM203.593 111.03C203.593 113.955 202.7 115.953 201.066 117.233L202.3 118.807C204.546 117.047 205.593 114.385 205.593 111.03H203.593ZM201.062 117.236C199.368 118.577 197.039 119.3 193.973 119.3V121.3C197.347 121.3 200.158 120.503 202.304 118.804L201.062 117.236ZM193.973 119.3C190.93 119.3 188.597 118.579 186.88 117.233L185.646 118.807C187.809 120.501 190.617 121.3 193.973 121.3V119.3ZM186.884 117.236C185.269 115.957 184.383 113.958 184.383 111.03H182.383C182.383 114.382 183.418 117.043 185.643 118.804L186.884 117.236ZM197.613 110.91C197.613 108.848 197.393 107.167 196.87 105.966C196.603 105.354 196.238 104.818 195.736 104.435C195.221 104.04 194.619 103.85 193.973 103.85V105.85C194.207 105.85 194.376 105.912 194.521 106.023C194.679 106.144 194.863 106.366 195.036 106.764C195.393 107.583 195.613 108.932 195.613 110.91H197.613ZM193.973 103.85C193.33 103.85 192.731 104.042 192.219 104.438C191.722 104.823 191.36 105.359 191.097 105.969C190.581 107.169 190.363 108.849 190.363 110.91H192.363C192.363 108.931 192.581 107.581 192.934 106.761C193.106 106.361 193.288 106.14 193.443 106.02C193.584 105.91 193.747 105.85 193.973 105.85V103.85ZM190.363 110.91C190.363 112.971 190.581 114.651 191.097 115.851C191.36 116.461 191.722 116.997 192.219 117.382C192.731 117.778 193.33 117.97 193.973 117.97V115.97C193.747 115.97 193.584 115.91 193.443 115.8C193.288 115.68 193.106 115.459 192.934 115.059C192.581 114.239 192.363 112.889 192.363 110.91H190.363ZM193.973 117.97C194.619 117.97 195.221 117.78 195.736 117.385C196.238 117.002 196.603 116.466 196.87 115.854C197.393 114.653 197.613 112.972 197.613 110.91H195.613C195.613 112.888 195.393 114.237 195.036 115.056C194.863 115.454 194.679 115.676 194.521 115.797C194.376 115.908 194.207 115.97 193.973 115.97V117.97ZM228.475 120L227.546 120.368L227.796 121H228.475V120ZM226.555 115.152L227.485 114.784L227.235 114.152H226.555V115.152ZM214.315 115.152V114.152H213.623L213.379 114.8L214.315 115.152ZM212.491 120V121H213.184L213.427 120.352L212.491 120ZM205.675 120L204.712 119.731L204.358 121H205.675V120ZM213.787 90.912V89.912H213.028L212.824 90.6434L213.787 90.912ZM230.875 90.912L231.839 90.6434L231.635 89.912H230.875V90.912ZM238.987 120V121H240.304L239.951 119.731L238.987 120ZM224.107 108.912V109.912H225.577L225.037 108.545L224.107 108.912ZM220.315 99.312L221.245 98.9446L220.297 96.5443L219.381 98.9568L220.315 99.312ZM216.667 108.912L215.733 108.557L215.218 109.912H216.667V108.912ZM229.405 119.632L227.485 114.784L225.626 115.52L227.546 120.368L229.405 119.632ZM226.555 114.152H214.315V116.152H226.555V114.152ZM213.379 114.8L211.555 119.648L213.427 120.352L215.251 115.504L213.379 114.8ZM212.491 119H205.675V121H212.491V119ZM206.639 120.269L214.751 91.1806L212.824 90.6434L204.712 119.731L206.639 120.269ZM213.787 91.912H230.875V89.912H213.787V91.912ZM229.912 91.1806L238.024 120.269L239.951 119.731L231.839 90.6434L229.912 91.1806ZM238.987 119H228.475V121H238.987V119ZM225.037 108.545L221.245 98.9446L219.385 99.6794L223.177 109.279L225.037 108.545ZM219.381 98.9568L215.733 108.557L217.602 109.267L221.25 99.6672L219.381 98.9568ZM216.667 109.912H224.107V107.912H216.667V109.912ZM242.603 120L241.608 120.099L241.698 121H242.603V120ZM239.723 90.912V89.912H238.62L238.728 91.0105L239.723 90.912ZM254.843 90.912L255.839 91.0105L255.947 89.912H254.843V90.912ZM251.963 120V121H252.869L252.959 120.099L251.963 120ZM243.599 119.901L240.719 90.8135L238.728 91.0105L241.608 120.099L243.599 119.901ZM239.723 91.912H254.843V89.912H239.723V91.912ZM253.848 90.8135L250.968 119.901L252.959 120.099L255.839 91.0105L253.848 90.8135ZM251.963 119H242.603V121H251.963V119Z" fill="#01A2C1" mask="url(#path-6-outside-2_322_3883)"/>
<rect x="126" y="57" width="100" height="100" rx="50" fill="white"/>
<path d="M138.548 109.016C141.749 121.417 127.881 124.851 120.547 125.017V131.518C115.047 129.351 103.846 122.617 103.046 113.017C102.246 103.416 112.047 98.6824 117.047 97.5156C122.881 96.1822 135.348 96.6156 138.548 109.016Z" fill="#01A2C1" stroke="#01A2C1"/>
<mask id="path-10-outside-3_322_3883" maskUnits="userSpaceOnUse" x="123" y="107" width="9" height="15" fill="black">
<rect fill="white" x="123" y="107" width="9" height="15"/>
<path d="M125.7 121L124.5 108.88H130.8L129.6 121H125.7Z"/>
</mask>
<path d="M125.7 121L124.5 108.88H130.8L129.6 121H125.7Z" fill="white"/>
<path d="M125.7 121L124.705 121.099L124.794 122H125.7V121ZM124.5 108.88V107.88H123.396L123.505 108.979L124.5 108.88ZM130.8 108.88L131.795 108.979L131.904 107.88H130.8V108.88ZM129.6 121V122H130.506L130.595 121.099L129.6 121ZM126.695 120.901L125.495 108.781L123.505 108.979L124.705 121.099L126.695 120.901ZM124.5 109.88H130.8V107.88H124.5V109.88ZM129.805 108.781L128.605 120.901L130.595 121.099L131.795 108.979L129.805 108.781ZM129.6 120H125.7V122H129.6V120Z" fill="#01A2C1" mask="url(#path-10-outside-3_322_3883)"/>
<circle cx="106" cy="91" r="2.5" fill="#01A2C1" stroke="#01A2C1"/>
<circle cx="132" cy="91" r="2.5" fill="#01A2C1" stroke="#01A2C1"/>
<mask id="path-14-outside-4_322_3883" maskUnits="userSpaceOnUse" x="147" y="89" width="109" height="33" fill="black">
<rect fill="white" x="147" y="89" width="109" height="33"/>
<path d="M151.08 120L148.2 90.912H163.32L160.44 120H151.08ZM182.171 101.82L182.771 107.52L177.941 106.56L176.591 120H170.741L169.391 106.56L164.531 107.52L165.131 101.82H182.171ZM183.383 111.03C183.383 107.89 184.293 105.5 186.113 103.86C187.953 102.22 190.573 101.4 193.973 101.4C197.393 101.4 200.013 102.22 201.833 103.86C203.673 105.5 204.593 107.89 204.593 111.03C204.593 114.17 203.623 116.5 201.683 118.02C199.763 119.54 197.193 120.3 193.973 120.3C190.773 120.3 188.203 119.54 186.263 118.02C184.343 116.5 183.383 114.17 183.383 111.03ZM196.613 110.91C196.613 106.87 195.733 104.85 193.973 104.85C192.233 104.85 191.363 106.87 191.363 110.91C191.363 114.95 192.233 116.97 193.973 116.97C195.733 116.97 196.613 114.95 196.613 110.91ZM228.475 120L226.555 115.152H214.315L212.491 120H205.675L213.787 90.912H230.875L238.987 120H228.475ZM224.107 108.912L220.315 99.312L216.667 108.912H224.107ZM242.603 120L239.723 90.912H254.843L251.963 120H242.603Z"/>
</mask>
<path d="M151.08 120L148.2 90.912H163.32L160.44 120H151.08ZM182.171 101.82L182.771 107.52L177.941 106.56L176.591 120H170.741L169.391 106.56L164.531 107.52L165.131 101.82H182.171ZM183.383 111.03C183.383 107.89 184.293 105.5 186.113 103.86C187.953 102.22 190.573 101.4 193.973 101.4C197.393 101.4 200.013 102.22 201.833 103.86C203.673 105.5 204.593 107.89 204.593 111.03C204.593 114.17 203.623 116.5 201.683 118.02C199.763 119.54 197.193 120.3 193.973 120.3C190.773 120.3 188.203 119.54 186.263 118.02C184.343 116.5 183.383 114.17 183.383 111.03ZM196.613 110.91C196.613 106.87 195.733 104.85 193.973 104.85C192.233 104.85 191.363 106.87 191.363 110.91C191.363 114.95 192.233 116.97 193.973 116.97C195.733 116.97 196.613 114.95 196.613 110.91ZM228.475 120L226.555 115.152H214.315L212.491 120H205.675L213.787 90.912H230.875L238.987 120H228.475ZM224.107 108.912L220.315 99.312L216.667 108.912H224.107ZM242.603 120L239.723 90.912H254.843L251.963 120H242.603Z" fill="#01A2C1"/>
<path d="M151.08 120L150.085 120.099L150.174 121H151.08V120ZM148.2 90.912V89.912H147.096L147.205 91.0105L148.2 90.912ZM163.32 90.912L164.315 91.0105L164.424 89.912H163.32V90.912ZM160.44 120V121H161.346L161.435 120.099L160.44 120ZM152.075 119.901L149.195 90.8135L147.205 91.0105L150.085 120.099L152.075 119.901ZM148.2 91.912H163.32V89.912H148.2V91.912ZM162.325 90.8135L159.445 119.901L161.435 120.099L164.315 91.0105L162.325 90.8135ZM160.44 119H151.08V121H160.44V119ZM182.171 101.82L183.166 101.715L183.072 100.82H182.171V101.82ZM182.771 107.52L182.576 108.501L183.908 108.765L183.766 107.415L182.771 107.52ZM177.941 106.56L178.136 105.579L177.056 105.365L176.946 106.46L177.941 106.56ZM176.591 120V121H177.496L177.586 120.1L176.591 120ZM170.741 120L169.746 120.1L169.837 121H170.741V120ZM169.391 106.56L170.386 106.46L170.276 105.366L169.197 105.579L169.391 106.56ZM164.531 107.52L163.537 107.415L163.395 108.764L164.725 108.501L164.531 107.52ZM165.131 101.82V100.82H164.231L164.137 101.715L165.131 101.82ZM181.177 101.925L181.777 107.625L183.766 107.415L183.166 101.715L181.177 101.925ZM182.966 106.539L178.136 105.579L177.746 107.541L182.576 108.501L182.966 106.539ZM176.946 106.46L175.596 119.9L177.586 120.1L178.936 106.66L176.946 106.46ZM176.591 119H170.741V121H176.591V119ZM171.736 119.9L170.386 106.46L168.396 106.66L169.746 120.1L171.736 119.9ZM169.197 105.579L164.337 106.539L164.725 108.501L169.585 107.541L169.197 105.579ZM165.526 107.625L166.126 101.925L164.137 101.715L163.537 107.415L165.526 107.625ZM165.131 102.82H182.171V100.82H165.131V102.82ZM186.113 103.86L185.448 103.113L185.444 103.117L186.113 103.86ZM201.833 103.86L201.164 104.603L201.168 104.607L201.833 103.86ZM201.683 118.02L201.066 117.233L201.062 117.236L201.683 118.02ZM186.263 118.02L185.642 118.804L185.646 118.807L186.263 118.02ZM184.383 111.03C184.383 108.088 185.229 106.003 186.783 104.603L185.444 103.117C183.358 104.997 182.383 107.692 182.383 111.03H184.383ZM186.779 104.607C188.376 103.183 190.725 102.4 193.973 102.4V100.4C190.421 100.4 187.53 101.257 185.448 103.113L186.779 104.607ZM193.973 102.4C197.244 102.4 199.589 103.184 201.164 104.603L202.503 103.117C200.437 101.256 197.543 100.4 193.973 100.4V102.4ZM201.168 104.607C202.74 106.008 203.593 108.092 203.593 111.03H205.593C205.593 107.688 204.607 104.992 202.499 103.113L201.168 104.607ZM203.593 111.03C203.593 113.955 202.7 115.953 201.066 117.233L202.3 118.807C204.546 117.047 205.593 114.385 205.593 111.03H203.593ZM201.062 117.236C199.368 118.577 197.039 119.3 193.973 119.3V121.3C197.347 121.3 200.158 120.503 202.304 118.804L201.062 117.236ZM193.973 119.3C190.93 119.3 188.597 118.579 186.88 117.233L185.646 118.807C187.809 120.501 190.617 121.3 193.973 121.3V119.3ZM186.884 117.236C185.269 115.957 184.383 113.958 184.383 111.03H182.383C182.383 114.382 183.418 117.043 185.643 118.804L186.884 117.236ZM197.613 110.91C197.613 108.848 197.393 107.167 196.87 105.966C196.603 105.354 196.238 104.818 195.736 104.435C195.221 104.04 194.619 103.85 193.973 103.85V105.85C194.207 105.85 194.376 105.912 194.521 106.023C194.679 106.144 194.863 106.366 195.036 106.764C195.393 107.583 195.613 108.932 195.613 110.91H197.613ZM193.973 103.85C193.33 103.85 192.731 104.042 192.219 104.438C191.722 104.823 191.36 105.359 191.097 105.969C190.581 107.169 190.363 108.849 190.363 110.91H192.363C192.363 108.931 192.581 107.581 192.934 106.761C193.106 106.361 193.288 106.14 193.443 106.02C193.584 105.91 193.747 105.85 193.973 105.85V103.85ZM190.363 110.91C190.363 112.971 190.581 114.651 191.097 115.851C191.36 116.461 191.722 116.997 192.219 117.382C192.731 117.778 193.33 117.97 193.973 117.97V115.97C193.747 115.97 193.584 115.91 193.443 115.8C193.288 115.68 193.106 115.459 192.934 115.059C192.581 114.239 192.363 112.889 192.363 110.91H190.363ZM193.973 117.97C194.619 117.97 195.221 117.78 195.736 117.385C196.238 117.002 196.603 116.466 196.87 115.854C197.393 114.653 197.613 112.972 197.613 110.91H195.613C195.613 112.888 195.393 114.237 195.036 115.056C194.863 115.454 194.679 115.676 194.521 115.797C194.376 115.908 194.207 115.97 193.973 115.97V117.97ZM228.475 120L227.546 120.368L227.796 121H228.475V120ZM226.555 115.152L227.485 114.784L227.235 114.152H226.555V115.152ZM214.315 115.152V114.152H213.623L213.379 114.8L214.315 115.152ZM212.491 120V121H213.184L213.427 120.352L212.491 120ZM205.675 120L204.712 119.731L204.358 121H205.675V120ZM213.787 90.912V89.912H213.028L212.824 90.6434L213.787 90.912ZM230.875 90.912L231.839 90.6434L231.635 89.912H230.875V90.912ZM238.987 120V121H240.304L239.951 119.731L238.987 120ZM224.107 108.912V109.912H225.577L225.037 108.545L224.107 108.912ZM220.315 99.312L221.245 98.9446L220.297 96.5443L219.381 98.9568L220.315 99.312ZM216.667 108.912L215.733 108.557L215.218 109.912H216.667V108.912ZM229.405 119.632L227.485 114.784L225.626 115.52L227.546 120.368L229.405 119.632ZM226.555 114.152H214.315V116.152H226.555V114.152ZM213.379 114.8L211.555 119.648L213.427 120.352L215.251 115.504L213.379 114.8ZM212.491 119H205.675V121H212.491V119ZM206.639 120.269L214.751 91.1806L212.824 90.6434L204.712 119.731L206.639 120.269ZM213.787 91.912H230.875V89.912H213.787V91.912ZM229.912 91.1806L238.024 120.269L239.951 119.731L231.839 90.6434L229.912 91.1806ZM238.987 119H228.475V121H238.987V119ZM225.037 108.545L221.245 98.9446L219.385 99.6794L223.177 109.279L225.037 108.545ZM219.381 98.9568L215.733 108.557L217.602 109.267L221.25 99.6672L219.381 98.9568ZM216.667 109.912H224.107V107.912H216.667V109.912ZM242.603 120L241.608 120.099L241.698 121H242.603V120ZM239.723 90.912V89.912H238.62L238.728 91.0105L239.723 90.912ZM254.843 90.912L255.839 91.0105L255.947 89.912H254.843V90.912ZM251.963 120V121H252.869L252.959 120.099L251.963 120ZM243.599 119.901L240.719 90.8135L238.728 91.0105L241.608 120.099L243.599 119.901ZM239.723 91.912H254.843V89.912H239.723V91.912ZM253.848 90.8135L250.968 119.901L252.959 120.099L255.839 91.0105L253.848 90.8135ZM251.963 119H242.603V121H251.963V119Z" fill="#01A2C1" mask="url(#path-14-outside-4_322_3883)"/>
</svg>
