<svg width="82" height="25" viewBox="0 0 82 25" fill="none" xmlns="http://www.w3.org/2000/svg">
<path d="M18.7742 13.0082C20.3743 19.2086 13.4405 20.9253 9.77362 21.0087V24.2589C7.02345 23.1755 1.4231 19.8086 1.02307 15.0083C0.62305 10.208 5.52335 7.84118 8.02351 7.25781C10.9404 6.5911 17.1741 6.80778 18.7742 13.0082Z" fill="#01A2C1" stroke="#01A2C1"/>
<path d="M12.85 19L12.25 12.94H15.4L14.8 19H12.85Z" fill="white"/>
<circle cx="2.5" cy="3.5" r="1" fill="#01A2C1" stroke="#01A2C1"/>
<circle cx="16.5" cy="3.5" r="1" fill="#01A2C1" stroke="#01A2C1"/>
<mask id="path-5-outside-1_332_2535" maskUnits="userSpaceOnUse" x="22" y="3" width="61" height="18" fill="black">
<rect fill="white" x="22" y="3" width="61" height="18"/>
<path d="M25.04 19L23.6 4.456H31.16L29.72 19H25.04ZM42.5876 9.91L42.8876 12.76L40.4726 12.28L39.7976 19H36.8726L36.1976 12.28L33.7676 12.76L34.0676 9.91H42.5876ZM43.1936 14.515C43.1936 12.945 43.6486 11.75 44.5586 10.93C45.4786 10.11 46.7886 9.7 48.4886 9.7C50.1986 9.7 51.5086 10.11 52.4186 10.93C53.3386 11.75 53.7986 12.945 53.7986 14.515C53.7986 16.085 53.3136 17.25 52.3436 18.01C51.3836 18.77 50.0986 19.15 48.4886 19.15C46.8886 19.15 45.6036 18.77 44.6336 18.01C43.6736 17.25 43.1936 16.085 43.1936 14.515ZM49.8086 14.455C49.8086 12.435 49.3686 11.425 48.4886 11.425C47.6186 11.425 47.1836 12.435 47.1836 14.455C47.1836 16.475 47.6186 17.485 48.4886 17.485C49.3686 17.485 49.8086 16.475 49.8086 14.455ZM67.7416 19L66.7816 16.576H60.6616L59.7496 19H56.3416L60.3976 4.456H68.9416L72.9976 19H67.7416ZM65.5576 13.456L63.6616 8.656L61.8376 13.456H65.5576ZM74.8056 19L73.3656 4.456H80.9256L79.4856 19H74.8056Z"/>
</mask>
<path d="M25.04 19L23.6 4.456H31.16L29.72 19H25.04ZM42.5876 9.91L42.8876 12.76L40.4726 12.28L39.7976 19H36.8726L36.1976 12.28L33.7676 12.76L34.0676 9.91H42.5876ZM43.1936 14.515C43.1936 12.945 43.6486 11.75 44.5586 10.93C45.4786 10.11 46.7886 9.7 48.4886 9.7C50.1986 9.7 51.5086 10.11 52.4186 10.93C53.3386 11.75 53.7986 12.945 53.7986 14.515C53.7986 16.085 53.3136 17.25 52.3436 18.01C51.3836 18.77 50.0986 19.15 48.4886 19.15C46.8886 19.15 45.6036 18.77 44.6336 18.01C43.6736 17.25 43.1936 16.085 43.1936 14.515ZM49.8086 14.455C49.8086 12.435 49.3686 11.425 48.4886 11.425C47.6186 11.425 47.1836 12.435 47.1836 14.455C47.1836 16.475 47.6186 17.485 48.4886 17.485C49.3686 17.485 49.8086 16.475 49.8086 14.455ZM67.7416 19L66.7816 16.576H60.6616L59.7496 19H56.3416L60.3976 4.456H68.9416L72.9976 19H67.7416ZM65.5576 13.456L63.6616 8.656L61.8376 13.456H65.5576ZM74.8056 19L73.3656 4.456H80.9256L79.4856 19H74.8056Z" fill="#01A2C1"/>
<path d="M25.04 19L24.0449 19.0985L24.1341 20H25.04V19ZM23.6 4.456V3.456H22.4961L22.6049 4.55453L23.6 4.456ZM31.16 4.456L32.1551 4.55453L32.2639 3.456H31.16V4.456ZM29.72 19V20H30.6259L30.7151 19.0985L29.72 19ZM26.0351 18.9015L24.5951 4.35747L22.6049 4.55453L24.0449 19.0985L26.0351 18.9015ZM23.6 5.456H31.16V3.456H23.6V5.456ZM30.1649 4.35747L28.7249 18.9015L30.7151 19.0985L32.1551 4.55453L30.1649 4.35747ZM29.72 18H25.04V20H29.72V18ZM42.5876 9.91L43.5821 9.80531L43.4878 8.91H42.5876V9.91ZM42.8876 12.76L42.6926 13.7408L44.0242 14.0055L43.8821 12.6553L42.8876 12.76ZM40.4726 12.28L40.6675 11.2992L39.5876 11.0845L39.4776 12.1801L40.4726 12.28ZM39.7976 19V20H40.7022L40.7926 19.0999L39.7976 19ZM36.8726 19L35.8776 19.0999L35.968 20H36.8726V19ZM36.1976 12.28L37.1926 12.1801L37.0827 11.0858L36.0038 11.299L36.1976 12.28ZM33.7676 12.76L32.7731 12.6553L32.6311 14.0038L33.9614 13.741L33.7676 12.76ZM34.0676 9.91V8.91H33.1673L33.0731 9.80532L34.0676 9.91ZM41.5931 10.0147L41.8931 12.8647L43.8821 12.6553L43.5821 9.80531L41.5931 10.0147ZM43.0825 11.7792L40.6675 11.2992L40.2776 13.2608L42.6926 13.7408L43.0825 11.7792ZM39.4776 12.1801L38.8026 18.9001L40.7926 19.0999L41.4676 12.3799L39.4776 12.1801ZM39.7976 18H36.8726V20H39.7976V18ZM37.8676 18.9001L37.1926 12.1801L35.2026 12.3799L35.8776 19.0999L37.8676 18.9001ZM36.0038 11.299L33.5738 11.779L33.9614 13.741L36.3914 13.261L36.0038 11.299ZM34.7621 12.8647L35.0621 10.0147L33.0731 9.80532L32.7731 12.6553L34.7621 12.8647ZM34.0676 10.91H42.5876V8.91H34.0676V10.91ZM44.5586 10.93L43.8932 10.1835L43.8891 10.1871L44.5586 10.93ZM52.4186 10.93L51.7491 11.6729L51.7532 11.6765L52.4186 10.93ZM52.3436 18.01L51.7268 17.2228L51.7229 17.226L52.3436 18.01ZM44.6336 18.01L44.0128 18.7941L44.0168 18.7972L44.6336 18.01ZM44.1936 14.515C44.1936 13.1433 44.5842 12.253 45.228 11.6729L43.8891 10.1871C42.7129 11.247 42.1936 12.7467 42.1936 14.515H44.1936ZM45.2239 11.6765C45.9013 11.0728 46.9405 10.7 48.4886 10.7V8.7C46.6366 8.7 45.0558 9.14724 43.8932 10.1835L45.2239 11.6765ZM48.4886 10.7C50.0493 10.7 51.0845 11.074 51.7491 11.6729L53.088 10.1871C51.9326 9.14603 50.3479 8.7 48.4886 8.7V10.7ZM51.7532 11.6765C52.405 12.2575 52.7986 13.1466 52.7986 14.515H54.7986C54.7986 12.7434 54.2721 11.2425 53.0839 10.1835L51.7532 11.6765ZM52.7986 14.515C52.7986 15.8698 52.3906 16.7027 51.7268 17.2228L52.9603 18.7972C54.2365 17.7973 54.7986 16.3002 54.7986 14.515H52.7986ZM51.7229 17.226C50.9883 17.8075 49.9445 18.15 48.4886 18.15V20.15C50.2526 20.15 51.7788 19.7325 52.9643 18.794L51.7229 17.226ZM48.4886 18.15C47.0449 18.15 45.9978 17.8085 45.2503 17.2228L44.0168 18.7972C45.2093 19.7315 46.7322 20.15 48.4886 20.15V18.15ZM45.2543 17.226C44.5989 16.7071 44.1936 15.8733 44.1936 14.515H42.1936C42.1936 16.2967 42.7482 17.7929 44.0129 18.794L45.2543 17.226ZM50.8086 14.455C50.8086 13.4031 50.6986 12.4793 50.3953 11.7831C50.2388 11.4239 50.0105 11.0779 49.6737 10.8202C49.3236 10.5523 48.9144 10.425 48.4886 10.425V12.425C48.5027 12.425 48.4785 12.424 48.4584 12.4086C48.4516 12.4034 48.4983 12.4361 48.5618 12.5819C48.6985 12.8957 48.8086 13.4869 48.8086 14.455H50.8086ZM48.4886 10.425C48.0624 10.425 47.6539 10.554 47.3056 10.8236C46.9712 11.0823 46.7456 11.4287 46.5914 11.7869C46.2922 12.4816 46.1836 13.4038 46.1836 14.455H48.1836C48.1836 13.4862 48.2924 12.8934 48.4282 12.5781C48.4915 12.4313 48.5377 12.3989 48.5297 12.4052C48.5076 12.4223 48.4797 12.425 48.4886 12.425V10.425ZM46.1836 14.455C46.1836 15.5062 46.2922 16.4284 46.5914 17.1231C46.7456 17.4813 46.9712 17.8277 47.3056 18.0864C47.6539 18.356 48.0624 18.485 48.4886 18.485V16.485C48.4797 16.485 48.5076 16.4877 48.5297 16.5048C48.5377 16.5111 48.4915 16.4787 48.4282 16.3319C48.2924 16.0166 48.1836 15.4238 48.1836 14.455H46.1836ZM48.4886 18.485C48.9144 18.485 49.3236 18.3577 49.6737 18.0898C50.0105 17.8321 50.2388 17.4861 50.3953 17.1269C50.6986 16.4307 50.8086 15.5069 50.8086 14.455H48.8086C48.8086 15.4231 48.6985 16.0143 48.5618 16.3281C48.4983 16.4739 48.4516 16.5066 48.4584 16.5014C48.4785 16.486 48.5027 16.485 48.4886 16.485V18.485ZM67.7416 19L66.8118 19.3682L67.062 20H67.7416V19ZM66.7816 16.576L67.7113 16.2078L67.4611 15.576H66.7816V16.576ZM60.6616 16.576V15.576H59.9694L59.7256 16.2239L60.6616 16.576ZM59.7496 19V20H60.4418L60.6855 19.3521L59.7496 19ZM56.3416 19L55.3783 18.7314L55.0245 20H56.3416V19ZM60.3976 4.456V3.456H59.6383L59.4343 4.18737L60.3976 4.456ZM68.9416 4.456L69.9048 4.18737L69.7008 3.456H68.9416V4.456ZM72.9976 19V20H74.3146L73.9608 18.7314L72.9976 19ZM65.5576 13.456V14.456H67.0277L66.4876 13.0886L65.5576 13.456ZM63.6616 8.656L64.5916 8.28862L63.6435 5.88832L62.7268 8.30078L63.6616 8.656ZM61.8376 13.456L60.9028 13.1008L60.3878 14.456H61.8376V13.456ZM68.6713 18.6318L67.7113 16.2078L65.8518 16.9442L66.8118 19.3682L68.6713 18.6318ZM66.7816 15.576H60.6616V17.576H66.7816V15.576ZM59.7256 16.2239L58.8136 18.6479L60.6855 19.3521L61.5975 16.9281L59.7256 16.2239ZM59.7496 18H56.3416V20H59.7496V18ZM57.3048 19.2686L61.3608 4.72463L59.4343 4.18737L55.3783 18.7314L57.3048 19.2686ZM60.3976 5.456H68.9416V3.456H60.3976V5.456ZM67.9783 4.72463L72.0343 19.2686L73.9608 18.7314L69.9048 4.18737L67.9783 4.72463ZM72.9976 18H67.7416V20H72.9976V18ZM66.4876 13.0886L64.5916 8.28862L62.7315 9.02338L64.6275 13.8234L66.4876 13.0886ZM62.7268 8.30078L60.9028 13.1008L62.7723 13.8112L64.5963 9.01122L62.7268 8.30078ZM61.8376 14.456H65.5576V12.456H61.8376V14.456ZM74.8056 19L73.8105 19.0985L73.8997 20H74.8056V19ZM73.3656 4.456V3.456H72.2617L72.3705 4.55453L73.3656 4.456ZM80.9256 4.456L81.9208 4.55453L82.0295 3.456H80.9256V4.456ZM79.4856 19V20H80.3915L80.4808 19.0985L79.4856 19ZM75.8008 18.9015L74.3608 4.35747L72.3705 4.55453L73.8105 19.0985L75.8008 18.9015ZM73.3656 5.456H80.9256V3.456H73.3656V5.456ZM79.9305 4.35747L78.4905 18.9015L80.4808 19.0985L81.9208 4.55453L79.9305 4.35747ZM79.4856 18H74.8056V20H79.4856V18Z" fill="#01A2C1" mask="url(#path-5-outside-1_332_2535)"/>
</svg>
