<svg width="80" height="80" viewBox="0 0 80 80" fill="none" xmlns="http://www.w3.org/2000/svg">
<g clip-path="url(#clip0_322_3953)">
<rect width="80" height="80" rx="40" fill="white"/>
<g clip-path="url(#clip1_322_3953)">
<path d="M70.489 9.67016C66.7046 8.44572 57.8001 8.77905 55.5735 11.6746C49.7846 11.7857 42.9957 17.0168 42.1046 23.9191C41.2224 30.7502 43.1868 33.9213 43.8846 39.0568C44.6757 44.8746 47.9468 46.7368 50.5624 47.5168C54.3246 52.4879 58.3246 52.2746 65.0424 52.2746C71.8046 52.2746 76.7268 49.9257 79.9979 45.6235V15.2968C77.6113 12.8591 74.4157 10.9391 70.489 9.67016Z" fill="#FFAC33"/>
<path d="M57.8887 48.5254H69.1309V70.7476H57.8887V48.5254Z" fill="#FFDC5D"/>
<path d="M78.3288 29.2297C77.0599 27.4719 75.4355 26.0586 71.8733 25.5564C73.2088 26.1675 74.4888 28.283 74.6555 29.4519C74.8222 30.6208 74.9888 31.5675 73.931 30.3986C69.6955 25.7164 65.0822 27.5608 60.511 24.7008C57.3177 22.703 56.3444 20.4941 56.3444 20.4941C56.3444 20.4941 55.9555 23.443 51.1133 26.4497C49.7088 27.3208 48.0355 29.2608 47.1066 32.1253C46.4377 34.1853 46.6466 36.0208 46.6466 39.1586C46.6466 41.703 47.2466 44.1253 48.2866 46.3119C50.9933 51.9964 56.7822 56.023 63.5088 56.023C69.2577 56.023 74.3288 53.0564 77.3733 48.6519C78.6357 46.831 79.5274 44.7794 79.9977 42.6141V33.4186C79.6777 31.5741 79.1422 30.3564 78.3288 29.2297Z" fill="#FFDC5D"/>
<path d="M71.0043 48.5246H56.0132C56.0132 48.5246 57.8865 52.2712 63.5087 52.2712C69.131 52.2712 71.0043 48.5246 71.0043 48.5246ZM65.3843 43.8424H61.6376C61.3889 43.8424 61.1504 43.7436 60.9745 43.5677C60.7987 43.3918 60.6999 43.1533 60.6999 42.9046C60.6999 42.6559 60.7987 42.4173 60.9745 42.2415C61.1504 42.0656 61.3889 41.9668 61.6376 41.9668H65.3843C65.633 41.9668 65.8715 42.0656 66.0474 42.2415C66.2233 42.4173 66.3221 42.6559 66.3221 42.9046C66.3221 43.1533 66.2233 43.3918 66.0474 43.5677C65.8715 43.7436 65.633 43.8424 65.3843 43.8424Z" fill="#C1694F"/>
<path d="M56.0154 37.2841C55.5186 37.2841 55.0421 37.0867 54.6908 36.7354C54.3395 36.3841 54.1421 35.9076 54.1421 35.4107V33.5374C54.1421 33.0406 54.3395 32.5641 54.6908 32.2127C55.0421 31.8614 55.5186 31.6641 56.0154 31.6641C56.5123 31.6641 56.9888 31.8614 57.3401 32.2127C57.6914 32.5641 57.8888 33.0406 57.8888 33.5374V35.4107C57.8888 35.9076 57.6914 36.3841 57.3401 36.7354C56.9888 37.0867 56.5123 37.2841 56.0154 37.2841ZM71.0043 37.2841C70.5075 37.2841 70.031 37.0867 69.6797 36.7354C69.3283 36.3841 69.131 35.9076 69.131 35.4107V33.5374C69.131 33.0406 69.3283 32.5641 69.6797 32.2127C70.031 31.8614 70.5075 31.6641 71.0043 31.6641C71.5011 31.6641 71.9776 31.8614 72.329 32.2127C72.6803 32.5641 72.8776 33.0406 72.8776 33.5374V35.4107C72.8785 35.657 72.8307 35.901 72.7368 36.1287C72.643 36.3563 72.5051 36.5632 72.3309 36.7373C72.1568 36.9115 71.9499 37.0494 71.7222 37.1433C71.4946 37.2371 71.2506 37.2849 71.0043 37.2841Z" fill="#662113"/>
<path d="M46.6667 57.8887H57.7778C57.7778 57.8887 58.2178 68.4953 63.2711 68.4953C68.3244 68.4953 69.0756 57.8887 69.0756 57.8887H80V88.9998H40V64.4953C40 60.1109 42.2222 57.8887 46.6667 57.8887Z" fill="#FA743E"/>
<path d="M18.3778 52.2744C31.4933 52.2744 37.74 43.4989 38.2933 28.5944C38.6267 19.5789 33.3378 12.75 23.8244 9.67222C20.0378 8.44777 11.1333 8.7811 8.90667 11.6744C5.88 11.7322 2.58667 13.1989 0 15.5655V45.2878C1.21778 46.4967 2.63333 47.1411 3.89778 47.5167C7.66222 52.4878 11.6622 52.2744 18.3778 52.2744Z" fill="#FFAC33"/>
<path d="M10.8823 48.5254H22.1245V70.7476H10.8823V48.5254Z" fill="#FFDC5D"/>
<path d="M31.3222 29.228C30.0533 27.4702 28.4289 26.0569 24.8667 25.5547C26.2022 26.1658 27.4822 28.2813 27.6489 29.4502C27.8156 30.6191 27.9822 31.5658 26.9244 30.3969C22.6889 25.7147 18.0756 27.5591 13.5044 24.6991C10.3133 22.7013 9.34 20.4902 9.34 20.4902C9.34 20.4902 8.95111 23.4391 4.10889 26.4458C2.70444 27.3169 1.03111 29.2569 0.102222 32.1213C0.0533333 32.2702 0.04 32.4147 0 32.5613V42.5747C0.275556 43.8791 0.717778 45.1258 1.28222 46.308C3.98889 51.9925 9.77778 56.0191 16.5044 56.0191C22.2533 56.0191 27.3244 53.0525 30.3689 48.648C32.3116 45.8635 33.3575 42.5521 33.3667 39.1569C33.3667 33.4569 32.7711 31.2325 31.3222 29.228Z" fill="#FFDC5D"/>
<path d="M23.9979 48.5246H9.00684C9.00684 48.5246 10.8802 52.2712 16.5024 52.2712C22.1246 52.2712 23.9979 48.5246 23.9979 48.5246ZM18.3779 43.8424H14.6313C14.3826 43.8424 14.144 43.7436 13.9682 43.5677C13.7923 43.3918 13.6935 43.1533 13.6935 42.9046C13.6935 42.6559 13.7923 42.4173 13.9682 42.2415C14.144 42.0656 14.3826 41.9668 14.6313 41.9668H18.3779C18.6267 41.9668 18.8652 42.0656 19.0411 42.2415C19.2169 42.4173 19.3157 42.6559 19.3157 42.9046C19.3157 43.1533 19.2169 43.3918 19.0411 43.5677C18.8652 43.7436 18.6267 43.8424 18.3779 43.8424Z" fill="#C1694F"/>
<path d="M9.00908 37.2841C8.51224 37.2841 8.03575 37.0867 7.68443 36.7354C7.33311 36.3841 7.13574 35.9076 7.13574 35.4107V33.5374C7.13574 33.0406 7.33311 32.5641 7.68443 32.2127C8.03575 31.8614 8.51224 31.6641 9.00908 31.6641C9.50591 31.6641 9.9824 31.8614 10.3337 32.2127C10.685 32.5641 10.8824 33.0406 10.8824 33.5374V35.4107C10.8824 35.9076 10.685 36.3841 10.3337 36.7354C9.9824 37.0867 9.50591 37.2841 9.00908 37.2841ZM23.998 37.2841C23.5011 37.2841 23.0246 37.0867 22.6733 36.7354C22.322 36.3841 22.1246 35.9076 22.1246 35.4107V33.5374C22.1246 33.0406 22.322 32.5641 22.6733 32.2127C23.0246 31.8614 23.5011 31.6641 23.998 31.6641C24.4948 31.6641 24.9713 31.8614 25.3226 32.2127C25.6739 32.5641 25.8713 33.0406 25.8713 33.5374V35.4107C25.8722 35.657 25.8243 35.901 25.7305 36.1287C25.6367 36.3563 25.4987 36.5632 25.3246 36.7373C25.1504 36.9115 24.9436 37.0494 24.7159 37.1433C24.4882 37.2371 24.2442 37.2849 23.998 37.2841Z" fill="#662113"/>
<path d="M33.3333 57.8887H22.2222C22.2222 57.8887 21.7822 68.4953 16.7289 68.4953C11.6756 68.4953 10.8822 57.8887 10.8822 57.8887H0V88.9998H40V64.4953C40 60.1109 37.7778 57.8887 33.3333 57.8887Z" fill="#99AAB5"/>
</g>
</g>
<defs>
<clipPath id="clip0_322_3953">
<rect width="80" height="80" rx="40" fill="white"/>
</clipPath>
<clipPath id="clip1_322_3953">
<rect width="80" height="80" fill="white" transform="translate(0 9)"/>
</clipPath>
</defs>
</svg>
